<?xml version="1.0" encoding="utf-8"?>
<!-- Generator: Adobe Illustrator 22.0.1, SVG Export Plug-In . SVG Version: 6.00 Build 0)  -->
<svg version="1.1" id="图层_1" xmlns="http://www.w3.org/2000/svg" xmlns:xlink="http://www.w3.org/1999/xlink" x="0px" y="0px"
	 viewBox="0 0 230 50" style="enable-background:new 0 0 230 50;" xml:space="preserve">
<style type="text/css">
	.st0{fill:#333333;}
</style>
<g>
	<rect x="111" y="23.3" class="st0" width="0.5" height="21.1"/>
	<g>
		<g>
			<g>
				<path class="st0" d="M83.6,20.1l1.9-1.9L84,16.8l1.5-1.5l-1.9-1.8L82.1,15c0,0-0.5-0.5-1-1c-1.6-1.6-4.1-1.6-5.7,0
					c-0.8,0.8-1.2,1.8-1.2,2.8s0.4,2,1.2,2.8c1.6,1.6,4.1,1.6,5.7,0c0.4-0.4,1-1,1-1L83.6,20.1z M79.3,17.8c-0.5,0.5-1.4,0.5-2,0
					c-0.3-0.3-0.4-0.6-0.4-1s0.1-0.7,0.4-1c0.5-0.5,1.4-0.5,2,0c0.4,0.4,1,1,1,1S79.8,17.3,79.3,17.8z M104,14
					c-1.6-1.6-4.1-1.6-5.7,0c-0.4,0.4-1,1-1,1l-1.5-1.5L94,15.3l1.5,1.5L94,18.3l1.9,1.9l1.5-1.5c0,0,0.5,0.5,1,1
					c1.6,1.6,4.1,1.6,5.7,0c0.8-0.8,1.2-1.8,1.2-2.8C105.2,15.8,104.8,14.7,104,14z M102.1,17.8c-0.5,0.5-1.4,0.5-2,0
					c-0.4-0.4-1-1-1-1s0.5-0.5,1-1c0.5-0.5,1.4-0.5,2,0c0.3,0.3,0.4,0.6,0.4,1C102.5,17.1,102.4,17.5,102.1,17.8z M91.6,16.8
					c0,0,4.3-4.4,4.8-4.8c1.6-1.6,1.6-4.1,0-5.7s-4.1-1.6-5.7,0c-0.6,0.6-1,1-1,1s-0.4-0.4-1-1c-1.6-1.6-4.1-1.6-5.7,0
					s-1.6,4.1,0,5.7c0.4,0.4,4.8,4.8,4.8,4.8s-4.4,4.3-4.8,4.8c-1.6,1.6-1.6,4.1,0,5.7s4.1,1.6,5.7,0c0.6-0.6,1-1,1-1s0.4,0.4,1,1
					c1.6,1.6,4.1,1.6,5.7,0s1.6-4.1,0-5.7C96,21.1,91.6,16.8,91.6,16.8z M85,10.2c-0.5-0.5-0.5-1.4,0-2c0.5-0.5,1.4-0.5,2,0
					c0.5,0.5,1,1,1,1l-1.5,1.5l1.9,1.9l1.5-1.5l1.5,1.5l1.8-1.9l-1.5-1.5c0,0,0.5-0.5,1-1s1.4-0.5,1.9,0s0.5,1.4,0,2
					C94,10.7,89.8,15,89.8,15S85.5,10.7,85,10.2z M94.6,25.4c-0.5,0.5-1.4,0.5-1.9,0s-1-1-1-1l1.5-1.5L91.4,21l-1.5,1.5L88.4,21
					l-1.9,1.9l1.5,1.5c0,0-0.5,0.5-1,1s-1.4,0.5-2,0c-0.5-0.5-0.5-1.4,0-1.9c0.6-0.6,4.8-4.8,4.8-4.8s4.2,4.2,4.8,4.8
					C95.1,24,95.1,24.9,94.6,25.4z"/>
				<path class="st0" d="M68.8,25.3v0.5c-0.4-0.4-0.9-0.6-1.5-0.6s-1.1,0.2-1.6,0.7c-0.4,0.4-0.6,1-0.6,1.7s0.2,1.2,0.6,1.7
					c0.4,0.4,0.9,0.7,1.6,0.7c0.5,0,1-0.2,1.4-0.6v0.5h1.1v-4.4h-1V25.3z M68.5,28.5c-0.2,0.3-0.6,0.4-1,0.4s-0.7-0.1-0.9-0.4
					c-0.2-0.3-0.3-0.6-0.3-1s0.1-0.7,0.4-1c0.2-0.3,0.6-0.4,0.9-0.4c0.4,0,0.7,0.1,1,0.4c0.2,0.3,0.4,0.6,0.4,1
					C68.8,27.9,68.7,28.2,68.5,28.5z"/>
				<path class="st0" d="M53.9,23.3H55v2.5c0,0,0.4-0.6,1.3-0.6c0.8,0,1.5,0.5,1.5,1.9v2.6h-1V27c0-0.5-0.2-1-0.8-1s-1,0.5-1,1v2.7
					h-1.1V23.3z"/>
				<path class="st0" d="M53.5,28.6c-0.2,0.3-0.6,0.6-0.9,0.8c-0.4,0.3-1,0.4-1.5,0.4c-0.8,0-1.5-0.3-2.1-0.8
					c-0.6-0.6-0.9-1.3-0.9-2.1c0-0.9,0.3-1.6,1-2.2c0.6-0.5,1.2-0.8,2-0.8c0.5,0,1,0.2,1.5,0.4c0.4,0.2,0.7,0.5,0.9,0.9l-1,0.7
					c-0.1-0.2-0.2-0.3-0.3-0.4c-0.3-0.4-0.7-0.6-1.2-0.6s-0.9,0.2-1.2,0.6s-0.5,0.9-0.5,1.4c0,0.6,0.2,1.1,0.5,1.5s0.7,0.5,1.2,0.5
					s0.9-0.2,1.2-0.6c0.1-0.1,0.2-0.3,0.3-0.4C52.5,27.9,53.2,28.4,53.5,28.6"/>
				<path class="st0" d="M63,25.2c-1.1,0-1.4,0.6-1.4,0.6v-0.5h-1v4.4h1.1V27c0-0.6,0.3-1.1,1-1.1s0.9,0.6,0.9,1.1v2.7h1v-2.6
					C64.6,25.7,63.9,25.2,63,25.2z"/>
				<path class="st0" d="M58.7,29.7v-4.5h1v4.5H58.7z"/>
				<path class="st0" d="M59.2,24.8c-0.4,0-0.6-0.3-0.6-0.6c0-0.3,0.3-0.6,0.6-0.6c0.4,0,0.6,0.3,0.6,0.6S59.6,24.8,59.2,24.8
					L59.2,24.8z"/>
				<path class="st0" d="M59.2,31.3c-0.4,0-0.6-0.3-0.6-0.6c0-0.4,0.3-0.6,0.6-0.6c0.4,0,0.6,0.3,0.6,0.6
					C59.8,31.1,59.6,31.3,59.2,31.3L59.2,31.3z"/>
				<path class="st0" d="M75,31.8c-0.7,0-1.1,0.3-1.5,0.7c-0.3-0.5-0.7-0.7-1.2-0.7c-0.9,0-1.3,0.6-1.3,0.6v-0.6h-1v4.4h1.1v-2.7
					c0-0.6,0.3-1,0.9-1s0.8,0.6,0.8,1v2.7h1v-2.6l0,0c0-0.8,0.3-1.1,0.9-1.1s0.8,0.6,0.8,1v2.7h1v-2.6C76.4,32.3,75.8,31.8,75,31.8z
					"/>
				<path class="st0" d="M58.7,36.2v-4.4h1v4.4H58.7z"/>
				<path class="st0" d="M67.1,31.7c0.4,0,0.8,0.1,1.2,0.3c0.4,0.2,0.7,0.5,0.9,0.8c0.2,0.4,0.3,0.8,0.3,1.2s-0.1,0.8-0.3,1.2
					c-0.2,0.4-0.5,0.7-0.8,0.8c-0.4,0.2-0.8,0.3-1.2,0.3c-0.6,0-1.2-0.2-1.6-0.7c-0.5-0.5-0.7-1-0.7-1.7s0.3-1.3,0.8-1.7
					C66,31.9,66.5,31.7,67.1,31.7z M67.2,32.5c-0.4,0-0.6,0.1-0.9,0.4C66.1,33.2,66,33.6,66,34c0,0.5,0.1,0.9,0.3,1.1
					c0.2,0.3,0.5,0.4,0.9,0.4s0.7-0.1,0.9-0.4c0.2-0.3,0.4-0.7,0.4-1.1c0-0.4-0.1-0.8-0.4-1.1C67.9,32.6,67.6,32.5,67.2,32.5z"/>
				<path class="st0" d="M56.3,31.7c-1.1,0-1.4,0.6-1.4,0.6v-0.5h-1v4.4H55v-2.7c0-0.6,0.3-1,1-1s0.9,0.6,0.9,1v2.7h1v-2.6
					C57.8,32.3,57.1,31.8,56.3,31.7z"/>
				<path class="st0" d="M50.6,36.3c1.1,0,1.4-0.6,1.4-0.6l0.1,0.5h1v-4.4H52v2.7c0,0.6-0.3,1-1,1s-0.9-0.6-0.9-1v-2.7H49v2.6
					C48.9,35.8,49.8,36.3,50.6,36.3z"/>
				<path class="st0" d="M64.7,35.4c-0.2,0.3-0.4,0.5-0.7,0.7c-0.4,0.2-0.8,0.3-1.2,0.3c-0.6,0-1.2-0.2-1.6-0.7
					c-0.5-0.5-0.7-1-0.7-1.6c0-0.7,0.3-1.3,0.8-1.7c0.4-0.4,1-0.6,1.6-0.6c0.4,0,0.8,0.1,1.2,0.3c0.3,0.2,0.6,0.4,0.7,0.7L64,33.4
					c-0.1-0.1-0.1-0.2-0.2-0.3c-0.2-0.3-0.5-0.4-0.9-0.4c-0.3,0-0.6,0.1-0.9,0.4c-0.2,0.3-0.3,0.6-0.3,1.1c0,0.4,0.1,0.8,0.3,1.1
					s0.5,0.4,0.9,0.4s0.6-0.1,0.9-0.4c0.1-0.1,0.2-0.2,0.2-0.3L64.7,35.4z"/>
				<path class="st0" d="M97.9,35.7c-0.2,0-0.4-0.2-0.4-0.3v-2.8h-1.2v0.5h0.4v2.4c0,0.4,0.4,0.7,0.6,0.7h4.6v-0.5
					C101.9,35.7,97.9,35.7,97.9,35.7z M99.8,32c-0.3-0.2-0.7-0.4-0.7-0.4L98.8,32l0.3,0.2H98v3.2h0.2c0.2,0,0.5-0.2,0.5-0.5v-0.4
					h0.8v0.9h0.2c0.3,0,0.5-0.1,0.5-0.5v-0.4h0.8v0.2c0,0.1-0.1,0.2-0.2,0.2h-0.3l0.1,0.5h0.5c0.4,0,0.6-0.3,0.6-0.6v-2.1
					c0-0.2-0.2-0.4-0.4-0.4h-0.8l1.1-0.7V31h-3.8v0.5h2.8L99.8,32z M99.5,34h-0.8v-0.4h0.8V34z M99.5,33.1h-0.8v-0.4h0.8V33.1z
					 M101.1,34h-0.8v-0.4h0.8V34z M101.1,32.7v0.4h-0.8v-0.4H101.1z M97.6,31.9c-0.4-0.5-0.8-0.8-0.8-0.8l-0.4,0.3l0.7,1L97.6,31.9z
					"/>
				<path class="st0" d="M92.9,34.4l-0.4,0.1v-3c0-0.3-0.2-0.5-0.5-0.5h-1.9v0.5h1.6v0.8h-0.6v-0.6h-0.7V35l-0.3,0.1v0.6l1.7-0.5
					v1.1h0.3c0.2,0,0.4-0.1,0.5-0.4V35l0.4-0.1L92.9,34.4L92.9,34.4z M91.8,34.7l-0.6,0.2V34h0.6V34.7z M91.8,33.5h-0.6v-0.7h0.6
					V33.5z M94.7,33.9h0.9v-0.5h-1v-0.8h1V32H95l0.6-0.8L95,30.8L94.3,32h-0.6l0.4-0.3c-0.4-0.5-0.7-0.9-0.7-0.9L93,31.1l0.5,0.9
					h-0.7v0.5h0.9v0.8h-0.9v0.5h0.8l-0.9,2.4h0.4c0.2,0,0.4-0.1,0.5-0.3l0.6-1.4l0.8,1.8h0.8L94.7,33.9z"/>
				<path class="st0" d="M82.4,31.6h-1.7v-0.7h-0.9v0.7h-1.1v0.5h1.1v2.2h-1.4v-2.7h-0.9v3.2h2.3v1.5h0.1c0.5,0,0.8-0.2,0.8-0.6
					v-0.9h1.5c0.4,0,0.8-0.3,0.8-0.8v-1.9C83,31.8,82.7,31.6,82.4,31.6z M82.1,33.9c0,0.2-0.2,0.3-0.3,0.3h-1.1V32h1.4V33.9z"/>
				<path class="st0" d="M88.7,30.9h-3.8v0.5h3.5v3.9c0,0.2-0.1,0.3-0.3,0.3h-3.5v-4.7h-0.8v5.3h4.7c0.4,0,0.8-0.3,0.8-0.8v-3.9
					C89.3,31.2,89,30.9,88.7,30.9z M88.2,34.6h-0.4l0.3-0.3c-0.4-0.3-0.6-0.5-0.6-0.5l-0.3,0.3l0.5,0.5h-0.6v-0.9h1.2v-0.5h-1.2
					v-0.7h1.2V32h-3.2v0.5h1.1v0.7h-1.1v0.5h1.1v0.9h-1.1v0.5h3.2L88.2,34.6L88.2,34.6z"/>
			</g>
			<g>
				<path class="st0" d="M51.5,40.6c0.1,0.1,0.2,0.5,0,0.6s-0.9-0.7-1-0.8c-0.2,0.4-0.5,0.8-0.7,1.1c0.2,0.2,0.4,0.2,0.7,0
					c0.5-0.2,0.4,0,1,0.1c-0.3,0.3-0.3,0.7-0.4,1.1c-0.2,0.7-0.7-0.2-0.7-0.2c0.6,0,0.2-0.7,0.4-0.8c-0.7,0-0.7,0.4-0.7,1
					s0.1,0.8,0.8,0.7c0.6-0.1,0.3-0.6,0.6-0.7c0.1,0,0.3,0.8,0.3,0.9c0.1,0.4-0.7,0.3-0.9,0.3c-1.7,0-0.9-1.2-1.2-2.2
					c-0.3,0.4-0.6,0.8-1.2,0.4c0.9-0.4,1.8-1.7,2-2.7c0.2,0.1,0.4,0.3,0.6,0.4c-0.2,0.1-0.4,0.3-0.5,0.5
					C50.8,40.3,51.2,40.4,51.5,40.6"/>
				<path class="st0" d="M52.3,43c-0.2-0.1-0.3-0.3-0.3-0.3s0.1-1.5-0.2-2.2c0.2,0.1,0.4,0.1,0.7,0.1C52.3,41,52.4,43,52.3,43"/>
				<path class="st0" d="M52.6,39.3c0.8,0.3,0.7,0.2,0.6,1.1c-0.1,0.8,0,1.5,0,2.3c0,0.5,0.2,1.2,0,1.7c-0.1,0.2-1.1-0.5-1-0.6
					c0.1-0.2,0.7,0.1,0.7-0.1c0-0.6,0-1.1,0-1.7C52.9,41.2,53,40.1,52.6,39.3"/>
			</g>
			<g>
				<path class="st0" d="M59.8,42c0,0,0.2,0.2,0.1,0.3c-0.3,0-0.5,0.1-0.8,0.1c0.1,0-0.1-0.1-0.1,0.4c0,0.4,0,0.7,0,1.1
					c0,0.8-0.7-0.3-0.9-0.2c0-0.1,0.5,0.1,0.5-0.2s0-0.7,0-1c-0.5,0.1-0.8,0.4-1.2,0c0.6-0.1,1.4,0,1.1-0.8
					c-0.3,0.1-0.5,0.1-0.8,0.2c-0.7,0.2-0.3,0-0.8-0.2c0.9-0.1,2.2,0,2.3-1.2c0.1,0.1,0.3,0.2,0.4,0.2c-0.2,0.1-0.3,0.4-0.5,0.6
					c0.2,0,0.7-0.3,0.8,0c0.1,0.2-1.2,0.3-1.4,0.4c0.4,0.2,0.5-0.1,0.3,0.5C59.2,42,59.6,41.9,59.8,42"/>
				<path class="st0" d="M58.3,42.8c0.2-0.2-0.4,0.7-0.5,0.9c-0.1-0.1-0.3-0.3-0.1-0.6C57.8,42.9,58.2,42.8,58.3,42.8"/>
				<path class="st0" d="M59.7,40c0.1,0,0.2,0.1,0.2,0.2c-0.3,0.3-2,0.4-2.3,0.2C58.1,40.3,59.4,39.8,59.7,40"/>
				<path class="st0" d="M58.1,40.7c0.3,0.2,0.6,0.1,0.4,0.6C58.4,41.4,58.1,40.7,58.1,40.7"/>
				<path class="st0" d="M58.6,39.4c0.2,0,1,0.2,0.6,0.6C59,40.1,58.5,39.3,58.6,39.4"/>
				<path class="st0" d="M59.3,42.6c0.2,0,0.9,0.3,0.5,0.7C59.8,43.3,59,42.5,59.3,42.6"/>
				<path class="st0" d="M59.4,44c0.9-0.7,1.2-2.7,0.8-3.7c0.5,0.4,1.3-0.6,1.5-0.6s0.4,0.2,0.5,0.4c-0.4,0.1-0.7,0.2-1,0.4
					c-0.6,0.2-0.6,0.3-0.6,0.9c0.6-0.1,1.7-0.7,2,0c-0.2,0.1-1.1,0.1-1.3,0.2c0.6,0.1,0.3,0,0.3,0.9c0,0.3,0.2,1.7,0,1.9
					c-0.5-0.4-0.4-0.6-0.4-0.9c0-0.5,0-0.8,0-1.3c0-1-0.2-0.3-0.7-0.7C60.5,42.4,60.6,44.2,59.4,44"/>
			</g>
			<g>
				<path class="st0" d="M72.1,40.8c-0.1-0.1-0.2-0.2-0.3-0.3c0.4,0,0.7-0.1,1.1-0.2c0.5-0.2,0.5,0.1,1,0.1
					c-0.3,0.2-0.3,1.5-0.5,1.5c-0.5-0.1-0.8,0-0.8,0.1c-0.1,0.3,0,0.7-0.1,1.4c0.2-0.1,1-0.7,1.2-0.6c0.1,0.1-1.3,1.2-1.5,1.4
					c-0.1-0.2-0.2-0.3-0.3-0.4c0.3-0.2,0.4-0.6,0.4-1.1c0-0.4,0-0.9-0.1-1.1c0.6,0.1,1,0.1,1-0.1c0.1-0.2,0.1-0.6,0.2-1
					C73.1,40.3,72.2,40.8,72.1,40.8 M73.9,41.9c0.2,0.1,0.5,0.2,0.8,0.5c0.1-0.3,0.3-0.7,0.3-1.1c-0.3,0-0.2,0.1-0.6-0.1
					c-0.2,0.4-0.4,0.7-0.9,0.5c0.7-0.4,1.1-1.5,1.1-2.3c0.2,0.1,0.4,0.2,0.6,0.3c-0.4,0.3-0.5,1-0.8,1.4c0.4-0.1,0.9-0.2,1.3-0.3
					S76,41,76.2,41c0,0.1-1.1,0.3-1.2,0.3c0.1,0.1,0.3,0.2,0.5,0.2c-0.3,0.3-0.5,1.2-0.5,1.2s0.2,0.3,0.5,0.6C76,43.6,77,43.9,77,44
					c-0.1,0.2-1,0-1.2,0c-0.5,0-0.7-0.6-1-0.9c-0.3,0.6-1,1.2-1.6,0.7c0.5-0.1,0.9-0.4,1.2-0.8c0.1-0.1,0.2-0.4,0.2-0.4
					S74.2,42.2,73.9,41.9"/>
			</g>
			<g>
				<path class="st0" d="M81.3,42.6c0.6,0.1,1.1,0.4,1.1,0.4s0.3-0.3,0.6-0.7c-0.6,0-1.2,0.5-1.7-0.1c0.4,0,0.8-0.1,1.2-0.2
					c0.7-0.2,0.6,0,1.3,0.2c-0.4,0.3-0.7,0.7-1,1c1.4,0.8,2.5,0.8,2.4,1c-0.1,0.1-0.4,0.1-0.8,0.2c-0.2,0-0.6,0-0.8-0.1
					c-0.5-0.3-1.1-0.7-1.1-0.7S81.1,44.9,80,44c0.7-0.1,1.4-0.3,2-0.7c-0.1-0.1-0.9-0.5-1.1-0.6C81.2,42.7,81.3,42.6,81.3,42.6"/>
				<path class="st0" d="M82.4,40.6c-0.1,0.1-0.1,1.3-0.1,1.3c-0.6-0.3-0.3-0.7-0.3-1.2c0-0.1-1,0-1.3-0.3c1.1-0.1,2.1-0.3,3.2-0.4
					c0.1,0,1.2,0.3,0.7,0.4c-0.5-0.1-1.1,0-1.6,0c0.5,0.2,0.2,0.1,0.2,0.6c0,0.1,0,0.9,0,0.9c-0.4-0.2-0.3-0.3-0.3-0.7
					c0.1-0.8,0-0.7-0.7-0.7C82.2,40.6,82.3,40.6,82.4,40.6"/>
				<path class="st0" d="M81.4,41.1c0,0.2-0.2,1.4-0.8,0.8C80.6,41.8,81.5,40.8,81.4,41.1"/>
				<path class="st0" d="M82.1,39.6c0.1,0,1.3-0.4,0.9,0.3C82.9,40.1,81.8,39.7,82.1,39.6"/>
				<path class="st0" d="M83.6,40.9c0,0,1.4,0.5,0.7,0.8C84,41.8,83.4,40.8,83.6,40.9"/>
			</g>
			<path class="st0" d="M93.5,41c0.2-0.1,0.5,0.3,0.4,0.5c-0.1,0.1-1.5,0-1.6,0c-0.1,0.5-0.2,0.7,0,1.2c-0.3,0-0.6,0-1,0.1
				c-0.2,0-0.1,0.2-0.2,0.2c0,0-0.4-0.2-0.3-0.4c0-0.3,0-0.7,0-1c-0.5,0.1-0.8-0.1-0.8,0.5c0,0.5,0,1,0,1.4c0.3,0,3.5-0.7,3.2,0.2
				c0,0-3.3,0.2-3.7,0.3c0-0.4-0.1-0.3,0-0.7c0.1-0.5,0.1-1.1,0.1-1.5c0,0-1.7,0.2-1.4-0.2l0.9-0.1c0.7-0.1,0.5-0.6,0.3-1.2
				c0.2,0.1,0.4,0.1,0.6,0.2c-0.1,0.3-0.1,0.6-0.1,0.9c0.5,0,0.8,0.1,0.7-0.5c0-0.3,0-0.7-0.2-1C90.8,40,91,40,91.2,40
				c-0.1,0.4,0,0.9,0,1.3c0.2,0,0.7,0,0.7-0.2c0.1-0.5,0.2-1.2,0-1.6c0.2,0.1,0.4,0.2,0.7,0.3c-0.2,0.4-0.2,0.9-0.3,1.4
				C92.7,41.1,93.1,41,93.5,41 M91.8,42.4c0-0.3,0.1-0.6,0.1-0.9c-0.9,0.1-0.7,0.2-0.7,1C91.4,42.5,91.6,42.5,91.8,42.4"/>
			<g>
				<path class="st0" d="M99.5,41c0.5-0.1,0.4,0.1,0.8,0.2c0.2,0,0.5-1.3,0.9-1.5c-0.3-0.1-0.6-0.2-0.8-0.4
					c-0.3,0.1-0.6,0.2-0.9,0.2c-0.6,0.1-1.2,0.2-1.8,0.1c0.4,0.6,0.2,1.4,0.8,1.7c0.2-0.1-0.1-0.2,0.2-0.2c-0.2,0.9-1.3,1.6-2.1,1.9
					c0.7,0.6,1.5-0.4,1.9-0.8c0.2,0.8-0.2,1.7-1,1.9c1.2,0.9,1.2-1.4,1.6-1.9c-0.2,0-0.3,0-0.5-0.1c0.2-0.3,0.4-0.5,0.7-0.7
					c-0.2-0.1-0.3-0.2-0.4-0.3c0.8,0,1.2,0.8,1.8,1.3c0.2,0.2,1.6,0.7,1.8,0.3C102.4,42.5,99.8,41.3,99.5,41z M98.5,40.9
					c-0.2,0-0.3-1-0.3-1.2c0.2,0.2,0.5,0.1,0.8,0c0,0.5,0,0.5-0.5,0.5c0.2,0.2,0.4,0.3,0.6,0.2C99.2,40.9,98.8,40.9,98.5,40.9z
					 M99.4,40.1c0-0.5,0.1-0.3-0.3-0.3c0.4-0.1,0.8-0.1,1.2-0.2c0.2,0-0.2,1-0.2,1.2c0-0.2-0.7,0-0.8,0c0-0.5,0.2-0.5,0.7-0.5
					C99.9,39.9,99.6,40.1,99.4,40.1z"/>
				<path class="st0" d="M99.9,44.6c-0.8-0.5-0.1-1.9-0.5-2.7C99.6,42,99.8,42,100,42C99.9,42.3,99.9,44.6,99.9,44.6"/>
			</g>
			<path class="st0" d="M67.5,41.7c0-0.3-0.2-0.5-0.5-0.5s-0.5,0.2-0.5,0.5s0.2,0.5,0.5,0.5S67.5,42,67.5,41.7z"/>
		</g>
	</g>
	<g>
		<path class="st0" d="M124,31.9v2.4h-1v-2.2c-1.1,0.2-2.2,0.4-3,0.5l-0.2-1.1c0.2,0,0.5-0.1,0.7-0.1v-6.9h-0.6v-1h4.6v1H124v6.3
			l0.9-0.1l0.1,1L124,31.9z M121.5,24.6v1.5h1.5v-1.5H121.5z M121.5,28.6h1.5V27h-1.5V28.6z M121.5,31.3c0.5-0.1,1-0.2,1.5-0.2v-1.5
			h-1.5V31.3z M128,29.6c0.5,1.7,1.6,3.1,3,3.7c-0.3,0.2-0.6,0.6-0.7,0.9c-1.2-0.6-2.1-1.7-2.8-3c-0.4,1.1-1.2,2.2-2.7,3.2
			c-0.2-0.2-0.6-0.6-0.8-0.8c1.9-1.2,2.6-2.7,2.8-4h-2.3v-1h2.4c0-0.2,0-0.3,0-0.5v-1.5h-2.1v-1h1.5c-0.2-0.5-0.7-1.3-1.2-1.9
			l0.9-0.5c0.5,0.6,1,1.3,1.2,1.8l-0.9,0.5h1.5c0.4-0.6,0.9-1.6,1.2-2.3l1.2,0.3c-0.4,0.7-0.8,1.4-1.2,2h1.5v1h-2.4V28
			c0,0.1,0,0.3,0,0.5h2.8v1L128,29.6L128,29.6z"/>
		<path class="st0" d="M134.7,31.9c0.2,0.1,0.5,0.3,0.8,0.6c0.8,0.5,1.8,0.6,3.2,0.6s3.3-0.1,4.5-0.3c-0.1,0.3-0.3,0.8-0.3,1.1
			c-0.9,0.1-3,0.1-4.3,0.1c-1.5,0-2.5-0.1-3.3-0.6c-0.5-0.3-0.9-0.7-1.2-0.7c-0.4,0-1,0.7-1.6,1.5l-0.7-0.9c0.6-0.6,1.2-1.1,1.7-1.3
			v-3.2H132v-1.1h2.7V31.9z M134.3,26.3c-0.4-0.6-1.4-1.5-2.1-2.1l0.8-0.7c0.7,0.6,1.7,1.4,2.1,2L134.3,26.3z M137,32.4h-1.1v-6.3
			h3.1c-0.7-0.3-1.4-0.6-2.1-0.9l0.7-0.6c0.5,0.2,1.1,0.4,1.7,0.6c0.5-0.2,1-0.6,1.4-0.9H136v-0.9h5.8l0.2-0.1l0.7,0.5
			c-0.6,0.6-1.5,1.2-2.3,1.7c0.3,0.1,0.6,0.3,0.8,0.4h1.6v5.2c0,0.5-0.1,0.8-0.4,0.9c-0.4,0.2-0.9,0.2-1.6,0.2
			c0-0.3-0.2-0.7-0.3-0.9c0.5,0,1,0,1.1,0s0.2,0,0.2-0.2v-0.9H140v1.9h-1v-1.9h-2V32.4z M137,26.9v0.9h1.8v-0.9H137z M138.8,29.6
			v-0.9H137v0.9H138.8z M139.8,26.9v0.9h1.8v-0.9H139.8z M141.6,29.6v-0.9h-1.8v0.9H141.6z"/>
		<path class="st0" d="M144.3,23.7h4.3v1h-1.8c-0.2,0.9-0.4,1.8-0.7,2.7h2.4v5.4h-2.4v0.9h-1v-4.1c-0.2,0.3-0.4,0.6-0.6,0.8
			c-0.1-0.3-0.3-1-0.5-1.3c0.8-1.1,1.3-2.7,1.7-4.4h-1.4V23.7z M147.5,28.4h-1.4v3.4h1.4V28.4z M155.4,29.1h-1.3v5.2H153v-5.2h-1.7
			c-0.1,1.8-0.4,3.9-1.7,5.2c-0.2-0.2-0.6-0.5-0.9-0.7c1.2-1.2,1.4-3,1.5-4.6H149v-1h1.3v-3.3h-0.9v-1.1h5.9v1.1h-1.1V28h1.3v1.1
			H155.4z M153,28v-3.3h-1.7V28H153z"/>
		<path class="st0" d="M166.3,33c0.3,0,0.4-0.2,0.4-1.8c0.2,0.2,0.7,0.4,1,0.5c-0.1,1.9-0.4,2.4-1.3,2.4h-1.2c-1,0-1.3-0.3-1.3-1.5
			v-2.7h-2.1c-0.1,1.6-0.9,3.3-4.3,4.3c-0.2-0.3-0.5-0.7-0.8-1c3-0.9,3.8-2.2,3.9-3.4h-3.1v-1.1h3.1v-1.1h1.2v1.1h3.3v3.7
			c0,0.4,0,0.4,0.4,0.4h0.8V33z M158,26.5h-1.1v-2.2h4.6c-0.1-0.3-0.3-0.7-0.5-1.1l1.2-0.3c0.2,0.4,0.5,1,0.7,1.4h4.4v2.1h-1.2v-1.1
			h-8L158,26.5L158,26.5z M157.2,27.4c1.1-0.4,2.5-1,3.5-1.8l0.9,0.5c-1.1,0.8-2.4,1.6-3.6,2.1L157.2,27.4z M163.5,25.6
			c1.2,0.5,2.7,1.3,3.5,1.9l-0.8,0.7c-0.7-0.6-2.3-1.5-3.5-2L163.5,25.6z"/>
		<path class="st0" d="M172.8,23.9c-0.3,1-0.8,2.2-1.1,3.1c0.8,1,1,1.9,1,2.6s-0.1,1.2-0.5,1.5c-0.2,0.1-0.4,0.2-0.7,0.2
			c-0.2,0-0.5,0-0.8,0c0-0.3-0.1-0.7-0.3-1c0.2,0,0.5,0,0.6,0s0.3,0,0.4-0.1c0.2-0.1,0.2-0.4,0.2-0.8c0-0.6-0.2-1.4-1-2.4
			c0.3-0.8,0.6-1.8,0.9-2.6h-1.3v9.7h-1V23.5h2.7h0.2L172.8,23.9z M178.7,33.1c0.2,0,0.3-0.2,0.3-1.5c0.2,0.2,0.7,0.4,1,0.4
			c-0.1,1.6-0.4,2.1-1.1,2.1h-1c-0.9,0-1.2-0.3-1.2-1.3v-2.9h-1.1c-0.2,2.1-0.8,3.6-3.1,4.4c-0.1-0.3-0.4-0.7-0.6-0.9
			c2-0.6,2.5-1.7,2.6-3.5H173v-1h6.9v1h-2.1v2.9c0,0.3,0,0.4,0.3,0.4h0.6V33.1z M173.9,26.8h-1v-2.3h3c-0.1-0.4-0.4-0.9-0.6-1.3
			l1.1-0.3c0.3,0.5,0.6,1.1,0.7,1.6h2.7v2.3h-1v0.9h-4.9V26.8z M174,25.5v1.2h4.7v-1.2H174z"/>
	</g>
	<path class="st0" d="M120.9,38v3.9c0,0.5,0.1,0.8,0.3,1.2c0.3,0.5,0.7,0.7,1.3,0.7c0.7,0,1.2-0.3,1.5-0.8c0.1-0.3,0.2-0.6,0.2-1.1
		V38h0.9v3.6c0,0.8-0.1,1.4-0.3,1.8c-0.4,0.8-1.1,1.2-2.2,1.2s-1.8-0.4-2.2-1.2c-0.2-0.4-0.3-1-0.3-1.8V38H120.9z"/>
	<path class="st0" d="M127.1,39.7h0.7v0.7c0.2-0.3,0.5-0.5,0.7-0.6c0.2-0.1,0.5-0.2,0.8-0.2c0.7,0,1.1,0.2,1.3,0.7
		c0.1,0.3,0.2,0.6,0.2,1.1v3H130v-2.9c0-0.3,0-0.5-0.1-0.7c-0.1-0.3-0.4-0.4-0.8-0.4c-0.2,0-0.3,0-0.5,0.1s-0.4,0.2-0.6,0.4
		c-0.1,0.2-0.2,0.3-0.3,0.5c0,0.2-0.1,0.4-0.1,0.7v2.4h-0.8v-4.8H127.1z"/>
	<path class="st0" d="M133,38h0.8v0.9H133V38z M133,39.7h0.8v4.6H133V39.7z"/>
	<path class="st0" d="M138.9,39.9c0.3,0.3,0.5,0.7,0.6,1.3h-0.8c0-0.3-0.2-0.5-0.3-0.7c-0.2-0.2-0.4-0.3-0.8-0.3
		c-0.5,0-0.9,0.2-1.1,0.7c-0.1,0.3-0.2,0.7-0.2,1.2s0.1,0.9,0.3,1.2s0.5,0.5,0.9,0.5c0.3,0,0.6-0.1,0.8-0.3s0.3-0.5,0.4-0.8h0.8
		c-0.1,0.6-0.3,1.1-0.7,1.4c-0.3,0.3-0.8,0.4-1.3,0.4c-0.6,0-1.1-0.2-1.5-0.7c-0.4-0.4-0.5-1-0.5-1.7c0-0.8,0.2-1.5,0.6-1.9
		c0.4-0.5,0.9-0.7,1.5-0.7C138.2,39.6,138.6,39.7,138.9,39.9z"/>
	<path class="st0" d="M144.5,40.2c0.4,0.4,0.6,1,0.6,1.8c0,0.7-0.2,1.4-0.5,1.9c-0.4,0.5-0.9,0.7-1.7,0.7c-0.6,0-1.1-0.2-1.5-0.6
		c-0.4-0.4-0.6-1-0.6-1.7c0-0.8,0.2-1.4,0.6-1.9c0.4-0.5,0.9-0.7,1.6-0.7C143.6,39.6,144.1,39.8,144.5,40.2z M144.1,43.2
		c0.2-0.4,0.3-0.8,0.3-1.3c0-0.4-0.1-0.8-0.2-1.1c-0.2-0.4-0.6-0.6-1.1-0.6s-0.8,0.2-1,0.5c-0.2,0.4-0.3,0.8-0.3,1.3
		s0.1,0.9,0.3,1.2s0.6,0.5,1,0.5C143.5,43.8,143.9,43.6,144.1,43.2z"/>
	<path class="st0" d="M147,39.7h0.8v0.7c0.2-0.2,0.4-0.4,0.5-0.5c0.3-0.2,0.6-0.3,0.9-0.3c0.4,0,0.7,0.1,0.9,0.3
		c0.1,0.1,0.2,0.3,0.3,0.5c0.2-0.2,0.4-0.4,0.6-0.6c0.2-0.1,0.5-0.2,0.8-0.2c0.6,0,1.1,0.2,1.3,0.7c0.1,0.2,0.2,0.6,0.2,1v3.1h-0.8
		v-3.2c0-0.3-0.1-0.5-0.2-0.6c-0.2-0.1-0.3-0.2-0.6-0.2s-0.6,0.1-0.8,0.3s-0.3,0.5-0.3,1v2.7h-0.8v-3c0-0.3,0-0.5-0.1-0.7
		s-0.3-0.3-0.7-0.3c-0.3,0-0.6,0.1-0.8,0.3s-0.4,0.6-0.4,1.2v2.5H147V39.7z"/>
	<path class="st0" d="M158.8,38h0.9v5.6h3.2v0.8h-4.1L158.8,38L158.8,38z"/>
	<path class="st0" d="M167,41.5c0.2,0,0.3-0.1,0.4-0.2c0-0.1,0.1-0.2,0.1-0.3c0-0.3-0.1-0.5-0.3-0.6s-0.5-0.2-0.8-0.2
		c-0.4,0-0.7,0.1-0.9,0.3c-0.1,0.1-0.2,0.3-0.2,0.5h-0.7c0-0.6,0.2-1,0.6-1.2c0.4-0.2,0.8-0.3,1.2-0.3c0.5,0,1,0.1,1.3,0.3
		s0.5,0.5,0.5,1v2.7c0,0.1,0,0.1,0,0.2c0,0,0.1,0.1,0.2,0.1h0.1h0.1v0.6c-0.1,0-0.2,0.1-0.3,0.1s-0.2,0-0.3,0
		c-0.3,0-0.5-0.1-0.6-0.3c-0.1-0.1-0.1-0.2-0.1-0.4c-0.2,0.2-0.4,0.4-0.7,0.5c-0.3,0.2-0.6,0.2-1,0.2s-0.8-0.1-1.1-0.4
		c-0.3-0.3-0.4-0.6-0.4-1s0.1-0.8,0.4-1c0.3-0.2,0.6-0.4,1.1-0.4L167,41.5z M165.4,43.6c0.2,0.1,0.4,0.2,0.6,0.2
		c0.3,0,0.5-0.1,0.8-0.2c0.4-0.2,0.7-0.6,0.7-1V42c-0.1,0.1-0.2,0.1-0.4,0.2c-0.2,0-0.3,0.1-0.4,0.1l-0.5,0.1
		c-0.3,0-0.5,0.1-0.6,0.2c-0.2,0.1-0.4,0.4-0.4,0.7C165.1,43.3,165.2,43.5,165.4,43.6z"/>
	<path class="st0" d="M170.3,37.9h0.8v2.3c0.2-0.2,0.4-0.4,0.6-0.5c0.2-0.1,0.5-0.2,0.8-0.2c0.6,0,1.1,0.2,1.4,0.6
		c0.4,0.4,0.5,1,0.5,1.8c0,0.7-0.2,1.3-0.5,1.8c-0.4,0.5-0.9,0.7-1.5,0.7c-0.4,0-0.7-0.1-0.9-0.3c-0.1-0.1-0.3-0.3-0.5-0.5v0.6h-0.7
		L170.3,37.9L170.3,37.9z M173.3,43.3c0.2-0.3,0.3-0.8,0.3-1.3s-0.1-0.9-0.3-1.2s-0.5-0.5-0.9-0.5s-0.7,0.1-0.9,0.4
		c-0.3,0.3-0.4,0.7-0.4,1.3c0,0.4,0.1,0.8,0.2,1.1c0.2,0.5,0.6,0.8,1.2,0.8C172.7,43.8,173.1,43.6,173.3,43.3z"/>
	<path class="st0" d="M176.6,42.9c0,0.3,0.1,0.5,0.2,0.6c0.2,0.3,0.5,0.4,1,0.4c0.3,0,0.6-0.1,0.8-0.2c0.2-0.1,0.3-0.3,0.3-0.6
		c0-0.2-0.1-0.4-0.3-0.5c-0.1-0.1-0.3-0.1-0.7-0.2l-0.6-0.2c-0.4-0.1-0.7-0.2-0.9-0.3c-0.3-0.2-0.5-0.5-0.5-0.9s0.2-0.8,0.5-1.1
		s0.8-0.4,1.3-0.4c0.7,0,1.2,0.2,1.5,0.6c0.2,0.3,0.3,0.5,0.3,0.8h-0.7c0-0.2-0.1-0.3-0.2-0.5c-0.2-0.2-0.5-0.3-1-0.3
		c-0.3,0-0.5,0.1-0.7,0.2c-0.2,0.1-0.2,0.3-0.2,0.4c0,0.2,0.1,0.4,0.3,0.5c0.1,0.1,0.3,0.1,0.5,0.2l0.5,0.1c0.6,0.1,1,0.3,1.2,0.4
		c0.3,0.2,0.5,0.5,0.5,0.9s-0.2,0.8-0.5,1.1s-0.8,0.5-1.5,0.5s-1.2-0.2-1.5-0.5s-0.4-0.7-0.5-1.2h0.9V42.9z"/>
</g>
</svg>
