<?xml version="1.0" encoding="utf-8"?>
<!-- Generator: Adobe Illustrator 22.0.1, SVG Export Plug-In . SVG Version: 6.00 Build 0)  -->
<svg version="1.1" id="图层_1" xmlns="http://www.w3.org/2000/svg" xmlns:xlink="http://www.w3.org/1999/xlink" x="0px" y="0px"
	 viewBox="0 0 40 40" style="enable-background:new 0 0 40 40;" xml:space="preserve">
<style type="text/css">
	.st0{fill:#FFFFFF;}
</style>
<path class="st0" d="M38,2v36H2V2H38 M40,0H0v40h40V0L40,0z"/>
<path class="st0" d="M13.2,17c2.1,0,4.2,1.8,5.4,3.2c-1.2,1.4-3.3,3.2-5.4,3.2c-1.8,0-3.2-1.4-3.2-3.2S11.4,17,13.2,17 M13.2,15
	C10.3,15,8,17.3,8,20.2s2.3,5.2,5.2,5.2c4.5,0,8-5.2,8-5.2S17.7,15,13.2,15L13.2,15z"/>
<path class="st0" d="M27.8,17c1.8,0,3.2,1.4,3.2,3.2s-1.4,3.2-3.2,3.2c-2.1,0-4.2-1.8-5.4-3.2C23.6,18.8,25.7,17,27.8,17 M27.8,15
	c-4.5,0-8,5.2-8,5.2s3.5,5.2,8,5.2c2.9,0,5.2-2.3,5.2-5.2S30.7,15,27.8,15L27.8,15z"/>
</svg>
