<?xml version="1.0" encoding="utf-8"?>
<!-- Generator: Adobe Illustrator 22.0.1, SVG Export Plug-In . SVG Version: 6.00 Build 0)  -->
<svg version="1.1" id="图层_1" xmlns="http://www.w3.org/2000/svg" xmlns:xlink="http://www.w3.org/1999/xlink" x="0px" y="0px"
	 viewBox="0 0 40 40" style="enable-background:new 0 0 40 40;" xml:space="preserve">
<style type="text/css">
	.st0{fill:#FFFFFF;}
</style>
<path class="st0" d="M38,2v36H2V2H38 M40,0H0v40h40V0L40,0z"/>
<path class="st0" d="M19.9,9c2.5,0,4.5,2,4.5,4.5s-2,4.5-4.5,4.5s-4.5-2-4.5-4.5S17.4,9,19.9,9 M19.9,7c-3.6,0-6.5,2.9-6.5,6.5
	s2.9,6.5,6.5,6.5s6.5-2.9,6.5-6.5S23.5,7,19.9,7L19.9,7z"/>
<path class="st0" d="M33.1,33.4H6.8V27c0-2.8,2.2-5,5-5h16.3c2.8,0,5,2.2,5,5V33.4z M8.8,31.4h22.3V27c0-1.6-1.3-3-3-3H11.7
	c-1.6,0-3,1.3-3,3v4.4H8.8z"/>
</svg>
