<?xml version="1.0" encoding="utf-8"?>
<!-- Generator: Adobe Illustrator 22.0.1, SVG Export Plug-In . SVG Version: 6.00 Build 0)  -->
<svg version="1.1" id="图层_1" xmlns="http://www.w3.org/2000/svg" xmlns:xlink="http://www.w3.org/1999/xlink" x="0px" y="0px"
	 viewBox="0 0 40 40" style="enable-background:new 0 0 40 40;" xml:space="preserve">
<style type="text/css">
	.st0{fill:#FFFFFF;}
</style>
<path class="st0" d="M31,2v2H2V2H31 M33,0H0v6h33V0L33,0z"/>
<path class="st0" d="M38,6v32H2V6H38 M40,4H0v36h40V4L40,4z"/>
<path class="st0" d="M30,21c0.6,0,1,0.4,1,1s-0.4,1-1,1s-1-0.4-1-1S29.4,21,30,21 M30,19c-1.7,0-3,1.3-3,3s1.3,3,3,3s3-1.3,3-3
	S31.7,19,30,19L30,19z"/>
<g>
	<rect x="13" y="34" class="st0" width="2" height="2"/>
</g>
<g>
	<rect x="8.5" y="34" class="st0" width="2" height="2"/>
</g>
<g>
	<rect x="4" y="34" class="st0" width="2" height="2"/>
</g>
</svg>
